<?xml version="1.0" standalone="no"?>
<!DOCTYPE svg PUBLIC "-//W3C//DTD SVG 20010904//EN"
 "http://www.w3.org/TR/2001/REC-SVG-20010904/DTD/svg10.dtd">
<svg version="1.0" xmlns="http://www.w3.org/2000/svg"
 width="492.000000pt" height="492.000000pt" viewBox="0 0 492.000000 492.000000"
 preserveAspectRatio="xMidYMid meet">
<metadata>
Created by potrace 1.14, written by Peter Selinger 2001-2017
</metadata>
<g transform="translate(0.000000,492.000000) scale(0.100000,-0.100000)"
fill="#000000" stroke="none">
<path d="M1522 3977 c-512 -512 -932 -935 -932 -938 0 -4 22 -9 50 -13 27 -4
52 -11 55 -16 3 -6 11 -10 16 -10 6 0 8 4 5 8 -2 4 5 9 17 9 17 2 18 0 7 -7
-11 -7 -9 -11 13 -19 57 -22 23 -17 -75 11 l-102 28 -35 -34 -35 -35 28 -11
c15 -5 38 -7 50 -4 16 4 23 1 23 -10 0 -9 -4 -16 -9 -16 -4 0 -8 5 -8 11 0 5
-5 7 -10 4 -6 -4 -27 -1 -46 5 -35 12 -37 11 -78 -29 l-41 -41 -1 -401 c0
-220 3 -402 8 -405 4 -3 8 13 8 34 0 22 6 44 12 49 18 14 81 -4 71 -20 -4 -7
5 -4 20 6 24 15 28 16 33 3 4 -11 11 -13 22 -7 33 17 98 0 85 -22 -3 -7 3 -3
15 7 14 12 22 14 22 7 0 -25 19 1 26 34 8 44 -8 65 -50 65 -17 0 -63 7 -101
15 -39 8 -89 15 -112 15 l-43 0 0 167 0 166 64 -61 c59 -57 86 -74 86 -54 0 4
-5 13 -12 20 -7 7 -8 12 -2 12 6 0 9 13 8 28 -2 29 17 116 27 127 9 8 39 -142
32 -161 -4 -12 -1 -15 13 -12 12 2 22 18 29 48 l11 45 15 -44 c9 -25 20 -46
27 -49 6 -2 19 16 29 39 l17 43 17 -40 c9 -22 20 -55 24 -73 7 -32 33 -39 27
-7 -2 9 3 31 11 49 8 17 19 43 25 57 9 22 11 22 12 5 1 -34 24 -60 52 -63 26
-3 28 0 29 35 0 21 2 49 4 63 6 39 14 142 15 173 0 15 5 27 12 27 6 0 9 -2 6
-6 -3 -3 -2 -20 2 -39 5 -23 4 -34 -3 -32 -15 3 -19 -121 -4 -148 9 -18 9 -19
-6 -6 -15 12 -17 10 -17 -28 0 -37 2 -41 25 -41 14 0 25 5 25 11 0 5 -5 7 -11
3 -6 -4 -5 4 2 17 l14 24 3 -27 c2 -16 7 -28 12 -28 4 0 6 12 4 28 -2 15 -6
45 -8 67 -4 34 -4 36 3 10 8 -29 9 -28 11 15 3 39 4 41 7 12 5 -37 23 -34 23
4 0 13 5 24 10 24 6 0 10 21 10 47 0 25 -3 43 -7 40 -3 -4 -12 1 -18 10 -11
15 -13 15 -20 -6 -3 -12 -2 -28 4 -35 6 -7 8 -16 4 -19 -3 -4 0 -7 7 -7 7 0
10 -3 7 -6 -4 -4 -13 -1 -22 6 -13 10 -15 9 -15 -9 0 -25 -15 -28 -24 -5 -9
22 -8 26 5 18 16 -9 2 115 -15 135 -7 9 -16 24 -19 34 -6 17 -23 21 -61 17
-10 -1 -16 3 -12 8 3 5 20 8 37 7 23 -2 33 2 39 19 9 21 9 21 9 -1 1 -23 15
-31 26 -14 8 14 -22 40 -53 47 -43 9 -50 14 -14 11 36 -4 54 15 34 35 -8 8 -6
18 6 36 15 23 15 25 -6 43 -22 17 -22 18 -2 24 24 8 25 14 4 43 -14 21 -14 22
8 23 13 1 34 3 48 4 38 4 82 -6 77 -19 -19 -45 -19 -45 17 -52 20 -3 36 -10
36 -14 0 -4 -12 -5 -26 -2 -32 6 -46 -13 -34 -44 5 -13 7 -32 5 -43 -4 -24 10
-36 50 -40 17 -1 35 -7 40 -12 7 -7 4 -8 -9 -3 -11 4 -21 2 -27 -7 -6 -10 -9
-10 -9 -1 0 6 -9 12 -20 12 -12 0 -20 -7 -20 -17 0 -15 -2 -14 -15 3 -14 19
-14 19 -15 -1 -1 -18 -1 -19 -11 -2 -14 24 -27 21 -25 -7 0 -14 6 -22 14 -19
6 3 12 0 12 -6 0 -8 6 -9 18 -2 12 6 23 5 37 -5 11 -8 14 -14 6 -14 -9 0 -12
-11 -9 -35 2 -19 0 -35 -4 -35 -4 0 -8 9 -8 21 0 12 -4 17 -11 13 -6 -3 -9
-19 -5 -35 3 -17 1 -29 -5 -29 -6 0 -7 -4 -4 -10 10 -16 13 -152 5 -175 -8
-19 -9 -19 -9 3 -1 24 -13 29 -28 10 -17 -21 -11 -103 7 -103 9 0 17 13 21 35
4 19 7 29 8 22 0 -7 5 -11 10 -8 5 4 7 -3 4 -15 -5 -19 9 -38 30 -39 4 0 8 21
9 48 l1 47 4 -42 c4 -43 7 -45 53 -45 89 0 86 -2 99 55 18 82 26 85 46 17 10
-33 22 -60 27 -60 4 0 8 76 8 169 0 143 -2 170 -16 175 -8 3 -13 2 -10 -3 3
-5 -8 -8 -24 -7 -17 0 -30 3 -30 7 0 3 -19 6 -42 7 -53 2 -98 9 -106 16 -8 8
52 1 67 -8 6 -4 11 -4 11 1 0 4 34 7 75 5 57 -3 75 0 75 10 0 20 -17 41 -27
35 -5 -3 -15 -2 -23 4 -12 7 -11 9 5 10 82 5 128 2 180 -12 33 -10 77 -20 97
-23 21 -4 40 -12 44 -18 4 -6 3 -8 -3 -5 -9 6 -113 28 -187 41 -19 4 -37 -1
-52 -13 l-24 -19 52 -13 c29 -7 55 -14 58 -14 3 -1 25 -5 50 -10 25 -5 47 -9
50 -10 3 -1 22 -5 43 -9 20 -5 37 -12 37 -16 0 -9 -43 -4 -100 10 -32 9 -52
12 -147 25 l-33 5 0 -180 c0 -176 0 -180 20 -168 10 7 16 15 12 18 -10 7 -8
41 5 70 6 14 9 28 6 33 -2 4 1 7 7 7 6 0 9 4 6 8 -2 4 3 25 13 47 l17 39 16
-39 c9 -22 19 -59 23 -82 4 -24 11 -46 16 -49 6 -3 2 -12 -8 -20 -16 -12 -16
-13 -1 -14 9 0 22 -8 27 -18 7 -11 13 -13 18 -6 5 6 16 13 26 17 12 4 17 17
17 42 0 19 7 43 16 53 9 9 34 50 56 90 l39 72 45 0 c28 0 43 4 39 10 -3 6 -17
10 -30 10 -13 0 -27 5 -31 12 -5 8 0 9 17 4 13 -3 48 -9 77 -12 44 -5 52 -3
52 10 0 9 -10 21 -22 25 -18 7 -13 9 22 8 39 -2 45 -5 48 -25 7 -48 98 -51
108 -3 10 46 14 53 27 49 6 -3 13 -17 15 -31 2 -20 9 -27 25 -28 12 0 32 -2
45 -5 22 -4 23 -2 26 46 1 14 8 16 35 12 5 -1 11 -12 13 -24 2 -13 8 -22 13
-22 6 1 46 5 90 8 l80 7 13 -31 c8 -17 11 -37 8 -45 -4 -11 6 -15 41 -17 43
-3 47 -6 58 -38 8 -22 9 -39 3 -47 -5 -7 -5 -14 2 -18 5 -3 10 -15 10 -26 0
-11 7 -30 15 -43 15 -23 15 -23 -12 -18 -16 3 -24 1 -20 -4 5 -5 14 -9 20 -9
7 0 14 -20 17 -44 4 -37 7 -42 17 -29 7 8 14 25 16 39 3 15 12 26 28 29 l24 6
3 172 c2 95 6 182 10 193 4 10 7 -60 7 -157 0 -96 3 -178 7 -180 4 -3 14 -2
20 3 7 4 25 6 39 5 31 -4 48 14 52 56 4 38 17 55 17 24 0 -35 30 -27 31 8 2
41 3 47 10 54 9 10 32 -51 24 -63 -3 -6 1 -11 9 -11 9 0 16 6 16 13 1 6 8 -4
16 -23 8 -19 13 -42 11 -51 -3 -13 7 -18 50 -26 31 -6 56 -6 59 -1 5 7 48 156
57 196 5 22 21 30 67 36 25 3 46 5 47 5 1 1 12 95 13 121 1 8 5 40 10 70 5 30
12 80 14 110 8 102 26 185 54 258 16 39 32 70 35 67 4 -3 3 1 -3 7 -15 18 -12
28 9 28 14 0 18 -5 14 -19 -5 -19 3 -52 32 -130 9 -25 18 -72 21 -105 2 -34 7
-67 9 -74 4 -10 -5 -11 -33 -7 -27 5 -33 4 -22 -4 8 -6 22 -11 31 -11 19 0 29
-28 29 -82 0 -20 6 -43 13 -50 8 -7 14 -34 15 -58 1 -88 -5 -83 88 -76 46 4
93 9 105 11 12 2 50 7 84 10 35 2 78 7 96 10 19 3 50 7 69 9 39 4 148 18 167
20 18 3 21 8 28 46 7 42 15 52 15 20 0 -22 76 -258 87 -270 2 -3 9 3 14 13 12
21 29 22 29 2 0 -16 15 -20 24 -7 3 5 6 42 6 83 2 99 9 139 26 139 11 0 14
-22 14 -102 0 -57 4 -109 9 -117 6 -9 3 -27 -10 -50 -10 -20 -19 -44 -19 -54
0 -11 -4 -15 -12 -11 -7 5 -8 3 -2 -7 4 -8 7 -95 6 -194 -2 -99 -1 -177 3
-173 3 3 8 79 11 169 3 102 10 166 16 170 29 18 33 -4 32 -157 -1 -217 -6
-204 75 -202 l66 2 -62 3 -63 4 0 169 c0 129 3 170 13 170 8 0 7 4 -3 10 -8 5
-12 10 -8 10 4 0 -2 25 -13 57 -10 31 -17 58 -15 60 12 12 70 -15 78 -36 7
-20 6 -22 -6 -11 -13 10 -16 8 -20 -12 -10 -42 -1 -231 11 -235 7 -3 11 26 11
88 1 50 3 94 6 97 4 3 6 -34 6 -81 0 -53 4 -87 10 -87 7 0 10 45 9 126 0 69 2
128 5 131 3 4 6 -21 6 -55 0 -48 3 -62 15 -62 12 0 15 19 16 108 1 59 2 134 4
167 l1 60 -1025 1028 c-564 565 -1028 1027 -1031 1027 -3 0 -425 -420 -938
-933z m1857 -513 c12 -12 -8 -10 -34 2 l-30 14 30 -6 c16 -3 32 -8 34 -10z
m38 10 c-3 -3 -12 -4 -19 -1 -8 3 -5 6 6 6 11 1 17 -2 13 -5z m-2450 -426 c-3
-7 -5 -2 -5 12 0 14 2 19 5 13 2 -7 2 -19 0 -25z m1969 -27 c-4 -5 -23 -9 -43
-7 -20 2 -50 0 -67 -5 -33 -10 -84 -54 -96 -84 -8 -19 -9 -19 -9 -1 -1 25 62
84 102 94 49 13 120 15 113 3z m-2113 -18 c-7 -2 -19 -2 -25 0 -7 3 -2 5 12 5
14 0 19 -2 13 -5z m111 -1 c3 -5 -1 -9 -9 -9 -8 0 -12 4 -9 9 3 4 7 8 9 8 2 0
6 -4 9 -8z m-94 -32 c20 -6 21 -8 5 -8 -11 0 -29 3 -40 8 -25 11 1 11 35 0z
m35 -71 c30 -2 29 -2 -5 -8 -19 -3 -36 -3 -38 1 -2 5 -11 8 -20 8 -15 0 -15
-2 -2 -10 11 -8 9 -9 -10 -6 -14 3 -36 5 -50 6 -24 2 -24 3 5 11 24 7 20 7
-20 4 -37 -3 -45 -1 -30 6 15 7 10 8 -20 4 -31 -3 -36 -2 -20 5 17 9 15 10
-11 6 -21 -3 -31 -1 -31 8 0 10 27 7 111 -10 61 -13 125 -24 141 -25z m392 25
c-3 -3 -12 -4 -19 -1 -8 3 -5 6 6 6 11 1 17 -2 13 -5z m460 -60 c-3 -3 -12 -4
-19 -1 -8 3 -5 6 6 6 11 1 17 -2 13 -5z m40 -10 c-3 -3 -12 -4 -19 -1 -8 3 -5
6 6 6 11 1 17 -2 13 -5z m-7 -54 c18 -12 2 -12 -25 0 -13 6 -15 9 -5 9 8 0 22
-4 30 -9z m317 -6 c-3 -3 -12 -4 -19 -1 -8 3 -5 6 6 6 11 1 17 -2 13 -5z
m-918 -77 c-1 -31 -1 -31 -9 -7 -11 36 -11 52 0 45 6 -3 10 -21 9 -38z m7
-133 c-3 -8 -10 -14 -15 -14 -7 0 -7 9 -1 26 6 14 11 37 12 52 1 18 3 14 5
-12 3 -21 2 -44 -1 -52z"/>
<path d="M1060 2851 c0 -6 5 -13 11 -16 5 -4 7 -19 4 -34 -4 -18 -1 -32 8 -40
12 -9 15 -4 20 30 4 28 1 46 -8 55 -16 16 -35 18 -35 5z"/>
<path d="M337 2791 c-45 -44 -47 -48 -41 -86 3 -22 7 -49 8 -60 1 -16 9 -21
39 -23 24 -2 39 2 43 11 2 7 3 56 2 109 l-3 96 -48 -47z"/>
<path d="M4566 2669 c5 -152 7 -175 15 -183 3 -3 20 8 39 24 19 17 40 30 45
30 6 0 26 -15 45 -33 19 -18 52 -46 73 -61 20 -16 37 -37 37 -47 0 -28 12 -24
55 21 l39 40 -39 40 c-21 22 -43 40 -47 40 -4 0 -8 -15 -8 -34 0 -19 -4 -37
-9 -40 -5 -4 -36 15 -69 41 l-59 48 2 66 2 67 -63 63 -63 63 5 -145z"/>
<path d="M4082 2743 c-16 -30 -51 -123 -46 -123 7 0 65 132 60 137 -2 3 -9 -4
-14 -14z"/>
<path d="M3413 2695 c-3 -9 -3 -18 -1 -21 3 -3 8 4 11 16 6 23 -1 27 -10 5z"/>
<path d="M2437 2683 c-4 -3 -7 -28 -7 -55 0 -36 4 -48 15 -48 11 0 15 11 15
43 0 43 -11 72 -23 60z"/>
<path d="M192 2647 l-21 -23 25 -2 c14 -1 23 2 19 7 -3 5 -1 11 5 13 5 1 6 9
2 16 -6 9 -14 6 -30 -11z"/>
<path d="M3415 2579 c0 -43 3 -79 6 -79 8 0 6 146 -1 154 -3 2 -5 -31 -5 -75z"/>
<path d="M4705 2615 c0 -49 12 -56 40 -25 18 20 18 21 -5 45 -13 14 -26 25
-29 25 -4 0 -6 -20 -6 -45z"/>
<path d="M2401 2597 c2 -39 5 -47 22 -47 15 0 17 3 9 13 -6 7 -13 25 -16 41
-8 47 -16 43 -15 -7z"/>
<path d="M2546 2612 c-5 -18 -5 -36 -2 -39 7 -7 19 43 13 59 -2 7 -7 -2 -11
-20z"/>
<path d="M236 2553 c-14 -14 -5 -43 13 -43 14 0 19 6 18 20 -1 20 -20 34 -31
23z"/>
<path d="M50 2505 l-44 -45 44 -45 c24 -24 46 -43 49 -41 7 4 5 165 -1 172 -2
2 -24 -17 -48 -41z"/>
<path d="M2290 2547 c3 -3 39 -9 80 -12 41 -4 82 -9 90 -11 10 -3 12 -2 5 4
-10 10 -184 29 -175 19z"/>
<path d="M2818 2496 c29 -25 63 -53 76 -61 38 -25 113 -99 120 -119 5 -14 9
-16 20 -7 10 9 41 10 103 6 60 -5 83 -3 73 4 -8 5 -18 7 -24 4 -5 -3 -6 -1 -3
4 10 17 -31 46 -63 45 -16 0 -32 4 -35 9 -4 5 4 9 16 9 22 0 22 1 4 14 -10 7
-26 12 -34 11 -9 -1 -10 0 -3 2 6 3 12 8 12 11 -1 12 -87 73 -110 77 -12 2
-30 7 -40 10 -30 9 -62 16 -114 22 l-50 6 52 -47z m252 -110 c0 -2 -9 -6 -20
-9 -11 -3 -20 -1 -20 4 0 5 9 9 20 9 11 0 20 -2 20 -4z"/>
<path d="M2523 2523 c9 -2 23 -2 30 0 6 3 -1 5 -18 5 -16 0 -22 -2 -12 -5z"/>
<path d="M2290 2465 c0 -25 5 -45 10 -45 6 0 10 20 10 45 0 25 -4 45 -10 45
-5 0 -10 -20 -10 -45z"/>
<path d="M3739 2501 c-14 -5 -205 -152 -247 -191 -27 -24 -45 -50 -35 -50 5 0
18 8 29 18 10 9 44 35 74 57 30 22 57 42 60 45 3 3 28 23 55 45 28 21 53 43
56 48 4 5 17 3 30 -4 50 -26 196 -148 192 -160 -1 -4 7 -4 19 -1 12 3 19 1 15
-5 -6 -10 18 -34 50 -51 16 -8 54 -8 106 1 42 7 36 24 -31 84 -126 114 -126
114 -169 109 l-38 -4 29 13 c27 12 28 13 10 23 -17 9 -87 21 -163 27 -14 1
-33 -1 -42 -4z"/>
<path d="M2190 2466 c0 -24 5 -36 14 -36 17 0 16 62 -2 68 -8 2 -12 -8 -12
-32z"/>
<path d="M970 2483 c0 -7 -8 -13 -17 -13 -12 0 -7 -8 17 -30 19 -16 41 -29 48
-30 6 0 12 -5 12 -11 0 -12 13 -26 82 -85 47 -40 57 -44 105 -44 36 0 53 4 53
13 0 9 2 9 9 -1 4 -8 19 -13 32 -12 13 1 29 1 34 0 25 -4 150 2 155 8 8 10 50
11 50 1 0 -5 63 -9 140 -9 87 0 140 4 140 10 0 6 -4 10 -8 10 -5 0 -35 26 -68
58 -103 100 -122 113 -168 112 -52 -1 -502 8 -559 11 -23 2 -45 7 -49 13 -5 7
-8 7 -8 -1z m170 -45 c0 -4 -9 -8 -21 -8 -11 0 -18 4 -15 8 3 5 12 9 21 9 8 0
15 -4 15 -9z m63 -5 c-7 -2 -19 -2 -25 0 -7 3 -2 5 12 5 14 0 19 -2 13 -5z
m251 -22 c3 -4 -6 -6 -19 -3 -14 2 -25 6 -25 8 0 8 39 4 44 -5z m106 5 c0 -2
-7 -7 -16 -10 -8 -3 -12 -2 -9 4 6 10 25 14 25 6z m-143 -51 c0 -8 -4 -12 -9
-9 -5 3 -6 10 -3 15 9 13 12 11 12 -6z m30 0 c0 -8 -4 -12 -9 -9 -5 3 -6 10
-3 15 9 13 12 11 12 -6z m-212 -55 c3 -6 -1 -7 -9 -4 -18 7 -21 14 -7 14 6 0
13 -4 16 -10z m90 0 c3 -6 -1 -7 -9 -4 -18 7 -21 14 -7 14 6 0 13 -4 16 -10z
m132 -22 c-3 -8 -6 -5 -6 6 -1 11 2 17 5 13 3 -3 4 -12 1 -19z m26 7 c-3 -9
-8 -14 -10 -11 -3 3 -2 9 2 15 9 16 15 13 8 -4z"/>
<path d="M1930 2455 c0 -39 14 -47 24 -12 9 35 7 47 -9 47 -10 0 -15 -11 -15
-35z"/>
<path d="M3413 2470 c-1 -11 1 -22 5 -24 4 -2 8 7 8 20 1 13 -1 24 -5 24 -4 0
-7 -9 -8 -20z"/>
<path d="M4234 2465 c0 -13 3 -22 7 -19 8 4 6 30 -2 38 -3 3 -5 -5 -5 -19z"/>
<path d="M2452 2450 c0 -19 2 -27 5 -17 2 9 2 25 0 35 -3 9 -5 1 -5 -18z"/>
<path d="M2257 2463 c-4 -3 -7 -13 -7 -22 1 -13 3 -13 11 2 11 19 8 33 -4 20z"/>
<path d="M2747 2443 c-11 -11 -8 -23 6 -23 8 0 14 7 14 15 0 16 -9 19 -20 8z"/>
<path d="M520 2421 c0 -12 6 -21 15 -21 8 0 15 4 15 9 0 5 -7 14 -15 21 -13
10 -15 9 -15 -9z"/>
<path d="M4647 2420 c-3 -11 -1 -23 5 -26 12 -7 15 -4 20 20 4 26 -18 32 -25
6z"/>
<path d="M3417 2417 c-3 -8 -2 -20 3 -26 5 -9 8 -4 8 13 0 29 -3 32 -11 13z"/>
<path d="M4230 2421 c0 -6 4 -12 8 -15 5 -3 9 1 9 9 0 8 -4 15 -9 15 -4 0 -8
-4 -8 -9z"/>
<path d="M927 2403 c-4 -3 -7 -24 -7 -45 0 -27 4 -38 15 -38 8 0 15 3 16 8 6
43 4 64 -6 72 -6 5 -15 7 -18 3z m15 -38 c3 -14 1 -25 -3 -25 -5 0 -9 11 -9
25 0 14 2 25 4 25 2 0 6 -11 8 -25z"/>
<path d="M4234 2340 c0 -27 2 -50 6 -50 3 0 6 23 6 50 0 28 -2 50 -6 50 -3 0
-6 -22 -6 -50z"/>
<path d="M514 2368 c-3 -5 -4 -11 -1 -14 5 -6 155 -6 182 0 11 3 29 5 39 5 11
1 16 4 13 8 -11 11 -227 12 -233 1z"/>
<path d="M2359 2365 c-6 -22 -2 -31 16 -35 14 -4 20 -15 21 -34 1 -15 7 -32
15 -37 11 -7 10 -9 -4 -9 -11 0 -17 -6 -15 -17 2 -12 -5 -18 -24 -19 -33 -3
-46 12 -18 21 16 5 29 23 18 26 -2 0 -23 3 -48 6 -25 3 -46 6 -47 7 -1 1 -3
13 -5 28 -5 39 -18 47 -18 12 l0 -30 -120 4 c-74 3 -120 1 -120 -5 0 -6 28 -9
66 -8 40 2 61 -1 53 -6 -13 -8 -5 -13 14 -10 5 1 6 -3 2 -9 -3 -6 -12 -7 -18
-3 -21 13 -58 13 -50 0 4 -7 -2 -5 -12 3 -11 9 -16 10 -11 3 4 -8 2 -13 -8
-13 -8 0 -17 -4 -20 -8 -3 -5 14 -9 37 -9 74 -1 88 -3 82 -13 -3 -5 3 -18 15
-30 25 -25 25 -30 3 -30 -15 0 -16 -2 -3 -10 10 -6 11 -10 3 -10 -7 0 -13 -4
-13 -10 0 -6 34 -10 81 -10 51 0 78 4 74 10 -3 6 -31 10 -62 10 -31 0 -53 3
-50 7 4 3 33 5 64 5 34 -1 53 1 45 6 -7 5 -35 7 -62 6 -28 -2 -50 0 -50 4 0 4
23 8 51 9 29 1 55 7 59 13 5 9 9 9 14 1 9 -14 56 -15 56 -1 0 6 11 10 24 10
13 0 27 7 30 16 4 10 2 13 -6 8 -8 -5 -9 -2 -3 12 5 10 9 42 9 69 1 49 0 50
-29 50 -18 0 -29 5 -27 13 2 11 -6 18 -9 7z"/>
<path d="M4654 2330 c1 -16 6 -30 11 -30 13 0 13 52 -1 57 -6 2 -10 -10 -10
-27z"/>
<path d="M2605 2278 c4 -46 3 -45 20 -45 11 0 15 11 15 39 0 30 -4 38 -19 38
-14 0 -18 -7 -16 -32z"/>
<path d="M2777 2303 c-5 -7 -6 -17 -2 -22 3 -5 -2 -11 -10 -13 -14 -3 -14 -5
-1 -23 19 -27 28 -15 24 31 -2 25 -6 34 -11 27z"/>
<path d="M2892 2275 c0 -45 22 -42 24 3 1 20 -3 32 -11 32 -8 0 -13 -13 -13
-35z"/>
<path d="M660 2283 c0 -5 5 -15 10 -23 9 -13 11 -13 19 0 5 8 7 18 5 22 -6 10
-34 11 -34 1z"/>
<path d="M1970 2286 c0 -2 7 -6 15 -10 8 -3 15 -1 15 4 0 6 -7 10 -15 10 -8 0
-15 -2 -15 -4z"/>
<path d="M3010 2282 c0 -12 19 -26 26 -19 2 2 -2 10 -11 17 -9 8 -15 8 -15 2z"/>
<path d="M4423 2240 c1 -40 5 -50 18 -50 14 0 17 10 17 50 1 43 -2 50 -18 50
-17 0 -19 -7 -17 -50z"/>
<path d="M200 2271 c0 -3 24 -30 53 -59 51 -51 77 -64 77 -40 0 6 6 4 13 -6
13 -17 14 -17 30 -1 10 9 17 32 17 54 l0 38 -67 8 c-38 4 -80 8 -95 10 -16 2
-28 0 -28 -4z"/>
<path d="M3070 2260 c0 -19 21 -50 34 -50 12 0 -3 53 -17 62 -14 7 -17 5 -17
-12z"/>
<path d="M1615 2239 c-11 -4 -44 -8 -73 -8 -29 -1 -51 -4 -49 -9 3 -4 39 -5
81 -2 42 3 76 2 76 -2 0 -5 -28 -8 -62 -8 -42 0 -58 -3 -48 -9 8 -6 17 -8 21
-5 4 2 9 -9 11 -26 4 -29 4 -29 -59 -36 -35 -3 -65 -5 -67 -3 -2 2 -6 21 -9
42 -4 27 -2 37 8 37 8 0 17 4 20 10 4 7 -2 7 -18 1 -14 -6 -28 -7 -32 -3 -4 4
-2 -3 4 -15 7 -14 10 -50 6 -98 -4 -67 -3 -75 15 -85 16 -8 22 -8 25 3 4 9 23
13 65 12 l60 -1 0 83 0 84 90 -2 c54 -1 95 3 103 10 8 6 16 9 18 6 3 -2 5 5 5
15 0 16 -6 20 -28 18 -15 -1 -28 -6 -28 -11 0 -5 9 -7 21 -4 12 3 19 1 17 -5
-6 -18 -37 -18 -47 0 -10 17 -91 25 -126 11z m115 -19 c0 -5 -4 -10 -10 -10
-5 0 -10 5 -10 10 0 6 5 10 10 10 6 0 10 -4 10 -10z"/>
<path d="M3010 2202 c0 -31 4 -52 11 -52 6 0 9 7 5 15 -3 9 0 15 9 15 8 0 15
4 15 10 0 5 -6 7 -13 4 -8 -3 -13 5 -15 22 -4 49 -12 39 -12 -14z"/>
<path d="M936 2232 c-3 -6 0 -13 6 -15 10 -4 10 -6 1 -6 -7 -1 -10 -8 -7 -16
9 -22 23 -8 19 17 -5 26 -11 32 -19 20z"/>
<path d="M810 2222 c0 -10 22 -32 31 -32 4 0 7 9 6 20 -1 19 -37 30 -37 12z"/>
<path d="M1995 2221 c-3 -5 -2 -12 3 -15 5 -3 9 1 9 9 0 17 -3 19 -12 6z"/>
<path d="M1051 2211 c-9 -6 -10 -11 -2 -15 6 -4 11 -14 11 -22 0 -8 -4 -12
-10 -9 -5 3 -10 1 -10 -4 0 -6 7 -11 15 -11 10 0 15 11 15 35 0 39 0 38 -19
26z"/>
<path d="M2028 2203 c7 -3 16 -2 19 1 4 3 -2 6 -13 5 -11 0 -14 -3 -6 -6z"/>
<path d="M2068 2203 c7 -3 16 -2 19 1 4 3 -2 6 -13 5 -11 0 -14 -3 -6 -6z"/>
<path d="M2108 2203 c7 -3 16 -2 19 1 4 3 -2 6 -13 5 -11 0 -14 -3 -6 -6z"/>
<path d="M3075 2190 c-12 -4 11 -8 54 -9 41 -1 72 1 69 5 -9 9 -100 12 -123 4z"/>
<path d="M1824 2178 c-7 -11 88 -10 105 1 8 5 -8 8 -44 8 -31 -1 -59 -5 -61
-9z"/>
<path d="M1960 2179 c0 -5 41 -9 90 -9 50 0 90 4 90 8 0 4 -40 9 -90 9 -50 1
-90 -3 -90 -8z"/>
<path d="M2493 2178 c-28 -13 -30 -28 -4 -28 10 0 21 9 24 20 3 11 4 20 4 19
-1 0 -12 -5 -24 -11z"/>
<path d="M3330 2181 c0 -5 11 -8 25 -7 33 1 33 16 0 16 -14 0 -25 -4 -25 -9z"/>
<path d="M3390 2182 c0 -5 14 -9 30 -9 17 0 30 4 30 9 0 4 -13 8 -30 8 -16 0
-30 -4 -30 -8z"/>
<path d="M4130 2178 c0 -5 17 -8 39 -8 21 0 44 -6 50 -13 9 -11 3 -14 -29 -12
-25 1 -41 -3 -44 -12 -12 -31 6 -41 82 -49 42 -4 82 -8 87 -9 6 -1 22 2 37 6
14 4 29 4 33 1 9 -9 58 -11 70 -3 6 4 17 7 25 6 8 0 18 4 22 10 5 6 8 6 8 -2
0 -15 50 9 73 35 16 18 15 19 -20 21 -101 7 -181 6 -177 -1 3 -4 1 -8 -5 -8
-5 0 -13 5 -16 10 -5 8 -11 7 -21 -1 -8 -6 -17 -9 -21 -5 -3 3 0 7 8 8 8 1
-15 4 -51 7 -36 3 -64 11 -63 16 1 6 -19 10 -43 10 -24 0 -44 -3 -44 -7z"/>
<path d="M4262 2178 c-9 -4 12 -7 47 -7 35 -1 61 2 58 6 -9 9 -83 10 -105 1z"/>
<path d="M820 2170 c-8 -5 -10 -10 -5 -10 6 0 17 5 25 10 8 5 11 10 5 10 -5 0
-17 -5 -25 -10z"/>
<path d="M1258 2167 c-5 -10 -8 -34 -8 -52 0 -31 2 -34 23 -26 15 6 22 17 24
37 1 21 0 22 -4 7 -7 -36 -21 -27 -25 15 -2 27 -5 32 -10 19z"/>
<path d="M1730 2171 c0 -6 4 -12 8 -15 5 -3 7 -19 4 -36 -3 -23 -1 -30 13 -30
11 0 15 -5 12 -15 -4 -8 -1 -17 5 -21 6 -4 8 -3 5 3 -3 5 3 16 14 23 10 8 19
20 19 26 0 15 -28 26 -42 17 -7 -3 -8 -1 -4 5 4 7 15 12 24 13 10 1 7 4 -8 8
-14 4 -24 13 -22 19 1 7 -5 12 -13 12 -8 0 -15 -4 -15 -9z"/>
<path d="M2426 2155 c-3 -9 0 -15 8 -15 8 0 16 7 20 15 3 9 0 15 -8 15 -8 0
-16 -7 -20 -15z"/>
<path d="M3063 2156 c0 -12 16 -15 73 -14 40 1 71 5 68 9 -2 4 7 2 20 -4 14
-7 23 -13 22 -14 -1 -1 -35 -3 -74 -4 -112 -2 -85 -14 33 -14 77 -1 105 2 105
11 0 18 -17 26 -56 26 -19 0 -31 4 -28 9 3 5 -32 9 -79 9 -66 0 -84 -3 -84
-14z"/>
<path d="M3562 2150 c-7 -11 -23 -20 -37 -20 -14 0 -25 -4 -25 -8 0 -17 54 -4
68 17 8 12 13 23 11 26 -3 2 -10 -5 -17 -15z"/>
<path d="M1680 2149 c0 -5 5 -7 10 -4 6 3 10 8 10 11 0 2 -4 4 -10 4 -5 0 -10
-5 -10 -11z"/>
<path d="M2590 2148 c0 -4 9 -8 20 -8 13 0 18 -5 14 -15 -5 -12 1 -15 27 -14
24 1 27 3 12 6 -20 4 -35 25 -15 22 20 -3 65 2 60 7 -10 9 -118 11 -118 2z"/>
<path d="M2018 2143 c23 -2 61 -2 85 0 23 2 4 4 -43 4 -47 0 -66 -2 -42 -4z"/>
<path d="M2388 2143 c7 -3 16 -2 19 1 4 3 -2 6 -13 5 -11 0 -14 -3 -6 -6z"/>
<path d="M3320 2128 c0 -26 76 -39 117 -19 56 28 48 32 -64 35 -44 1 -53 -2
-53 -16z"/>
<path d="M3643 2142 c-13 -2 -23 -8 -23 -13 0 -11 17 -11 44 0 24 9 9 18 -21
13z"/>
<path d="M1831 2116 c-11 -13 -4 -56 9 -56 4 0 12 -17 17 -37 7 -31 13 -38 33
-39 14 0 30 2 35 6 19 12 56 9 62 -6 4 -11 8 -12 19 -3 8 7 18 9 21 5 4 -4 2
-10 -4 -14 -6 -4 12 -7 40 -7 31 0 59 -5 70 -14 11 -9 17 -10 17 -3 0 7 7 12
16 12 8 0 13 4 10 8 -2 4 4 9 15 9 10 1 19 -2 19 -7 0 -5 7 -7 16 -3 9 3 20 0
24 -7 5 -8 13 -9 21 -4 25 15 59 12 59 -5 1 -11 5 -8 15 9 10 19 15 21 18 10
3 -8 8 -22 10 -30 4 -10 6 -7 6 7 1 19 9 22 74 30 39 4 74 6 77 3 5 -5 34 -5
55 0 28 7 75 4 75 -5 0 -5 5 -2 11 8 8 13 14 15 30 7 10 -6 19 -7 19 -3 0 4 5
1 10 -7 8 -13 10 -12 10 3 0 10 8 17 19 17 11 0 21 6 24 13 3 9 7 9 18 1 22
-18 55 -22 75 -11 27 16 46 17 61 6 7 -6 16 -8 22 -5 5 3 12 0 14 -6 4 -10 6
-10 6 0 1 8 9 10 27 6 20 -5 25 -4 19 6 -5 9 -2 10 15 5 39 -12 55 -13 62 -1
5 8 8 7 8 -2 0 -7 5 -10 10 -7 6 3 10 2 10 -3 0 -15 37 -21 49 -9 8 8 11 7 11
-2 0 -7 5 -9 10 -6 6 3 10 0 11 -7 0 -7 4 -4 9 7 7 18 8 19 15 3 4 -10 12 -15
18 -11 16 10 81 10 95 -1 9 -6 17 -3 26 10 11 15 17 16 29 6 8 -7 18 -9 20 -5
6 10 108 9 155 -2 20 -4 32 -13 33 -23 0 -10 5 -5 11 11 10 28 22 34 33 16 4
-6 13 -8 21 -5 8 3 14 -1 14 -10 0 -12 5 -10 22 5 16 15 25 18 34 10 7 -6 18
-8 23 -5 5 4 12 2 15 -3 3 -5 15 -7 26 -4 11 3 20 1 20 -5 0 -5 14 -8 31 -6
21 3 36 -2 44 -12 11 -16 12 -16 18 0 7 18 37 22 37 5 0 -5 5 -7 10 -4 6 3 10
1 10 -6 0 -9 3 -9 14 0 11 9 15 8 20 -6 5 -13 9 -14 15 -5 6 9 15 10 34 3 18
-7 28 -7 33 0 4 7 20 8 43 3 35 -7 155 -15 216 -14 26 1 75 33 75 49 0 3 -17
6 -37 5 -21 0 -56 3 -78 7 -22 4 -76 11 -120 14 -113 10 -125 12 -170 18 -71
11 -119 17 -185 22 -36 4 -66 10 -68 14 -1 4 -28 4 -60 0 -31 -3 -84 -5 -117
-3 -64 3 -67 3 -117 2 -38 -2 -149 9 -193 19 -16 3 -50 8 -75 9 -125 8 -180
13 -187 17 -4 2 -17 2 -28 0 -11 -3 -49 -4 -85 -3 -36 1 -90 2 -120 3 -55 2
-166 -9 -179 -17 -7 -5 -206 -14 -366 -17 -201 -4 -405 1 -405 10 0 6 24 12
53 14 l52 3 -55 3 c-37 2 -49 5 -36 10 17 6 17 8 3 14 -8 3 -20 0 -26 -7z"/>
<path d="M1880 2118 c0 -4 14 -8 30 -8 17 0 30 2 30 4 0 2 -13 6 -30 8 -16 3
-30 1 -30 -4z"/>
<path d="M1996 2122 c-3 -5 1 -9 9 -9 8 0 12 4 9 9 -3 4 -7 8 -9 8 -2 0 -6 -4
-9 -8z"/>
<path d="M2036 2122 c-3 -5 1 -9 9 -9 8 0 12 4 9 9 -3 4 -7 8 -9 8 -2 0 -6 -4
-9 -8z"/>
<path d="M2106 2122 c-3 -5 1 -9 9 -9 8 0 12 4 9 9 -3 4 -7 8 -9 8 -2 0 -6 -4
-9 -8z"/>
<path d="M3066 2122 c-3 -5 1 -9 9 -9 8 0 15 4 15 9 0 4 -4 8 -9 8 -6 0 -12
-4 -15 -8z"/>
<path d="M1154 2080 c0 -16 3 -27 6 -25 8 5 6 42 -1 50 -3 2 -5 -8 -5 -25z"/>
<path d="M2008 2093 c23 -2 61 -2 85 0 23 2 4 4 -43 4 -47 0 -66 -2 -42 -4z"/>
<path d="M2188 2093 c23 -2 59 -2 80 0 20 2 1 4 -43 4 -44 0 -61 -2 -37 -4z"/>
<path d="M1155 2029 c-4 -6 -5 -12 -2 -15 2 -3 7 2 10 11 7 17 1 20 -8 4z"/>
<path d="M2926 1987 c3 -10 9 -15 12 -12 3 3 0 11 -7 18 -10 9 -11 8 -5 -6z"/>
<path d="M660 1810 c0 -12 247 -250 253 -244 3 4 10 -2 13 -12 4 -10 32 -45
63 -76 45 -47 61 -58 88 -58 18 0 33 -4 33 -8 0 -5 14 -6 31 -4 20 3 34 0 40
-9 8 -13 20 -15 102 -18 15 -1 27 -6 27 -11 0 -10 -123 -6 -140 5 -4 3 -25 7
-45 10 -20 2 -45 10 -54 17 -9 7 18 -23 60 -66 83 -86 72 -81 227 -88 57 -3
70 -12 21 -16 -18 -1 -36 -5 -40 -8 -15 -9 -10 -34 5 -28 7 3 64 6 125 7 82 2
112 -1 115 -10 3 -7 18 -13 34 -13 16 0 35 -7 42 -15 11 -13 8 -14 -20 -8 -24
4 -31 3 -26 -5 7 -12 -31 -10 -139 9 -39 6 -30 7 35 3 86 -6 104 -1 40 11 -42
7 -184 16 -152 9 12 -3 22 -12 22 -20 0 -20 -83 -19 -100 1 -7 9 -15 13 -18
11 -12 -13 31 -36 70 -37 40 -1 41 -2 13 -9 -16 -4 -23 -8 -15 -9 12 -1 12 -3
2 -10 -19 -11 5 -29 38 -28 30 1 112 -11 160 -23 30 -8 27 -8 -22 -5 -72 4
-83 -6 -21 -21 l48 -12 -47 -1 c-26 0 -50 -6 -54 -12 -7 -12 324 -349 344
-349 7 0 11 -4 8 -8 -3 -5 139 -152 315 -328 l319 -319 899 899 c495 495 898
903 896 906 -5 8 -378 6 -392 -3 -6 -4 -14 -3 -17 1 -7 12 -128 3 -142 -10 -3
-4 -11 -5 -17 -3 -25 9 -88 12 -80 4 4 -4 44 -10 87 -13 79 -5 113 -15 63 -17
-38 -2 -45 -3 -51 -10 -4 -3 -77 -5 -164 -3 -113 3 -150 1 -133 -7 14 -5 34
-11 45 -13 25 -4 32 -22 11 -30 -9 -3 -13 -2 -10 4 3 5 -7 8 -22 7 -18 -1 -27
3 -25 11 1 6 -7 12 -18 12 -11 0 -19 5 -18 12 2 8 -14 10 -52 8 -30 -2 -64 -3
-75 -3 -11 0 -47 1 -80 2 -61 1 -166 -14 -130 -19 11 -2 2 -6 -20 -10 l-40 -7
48 -2 c26 0 47 4 47 9 0 6 7 10 16 10 8 0 13 -4 10 -8 -3 -5 1 -9 9 -9 8 0 12
4 10 8 -8 11 30 17 79 12 30 -4 43 -9 39 -17 -5 -8 -2 -7 8 1 8 6 36 10 64 8
28 -2 59 -5 70 -5 l20 -1 -20 -9 -20 -9 20 -1 c17 0 18 -2 4 -10 -9 -5 -32 -5
-58 1 -23 5 -47 6 -53 3 -7 -4 -8 -2 -4 4 4 7 2 12 -3 12 -6 0 -11 -4 -11 -8
0 -5 -15 -6 -32 -4 -28 4 -30 6 -13 13 17 6 16 8 -9 8 -20 1 -27 -3 -23 -13 5
-12 -14 -14 -116 -10 -67 2 -131 4 -142 5 -11 1 -39 -3 -63 -8 -36 -9 -41 -9
-31 3 8 9 8 14 1 14 -6 0 -14 -4 -17 -10 -3 -5 -11 -10 -16 -10 -6 0 -7 4 -4
10 6 10 -64 11 -80 1 -18 -12 -68 -13 -74 -2 -4 6 -17 8 -29 4 -12 -3 -19 -10
-15 -16 4 -6 0 -8 -10 -4 -10 3 -17 2 -17 -4 0 -6 16 -8 40 -4 23 3 49 1 61
-6 12 -6 19 -7 16 -2 -3 4 142 9 321 9 180 1 309 -2 287 -6 -39 -7 -39 -7 -7
-9 54 -2 36 -16 -23 -17 -30 -1 -53 2 -50 6 3 4 -62 8 -145 8 -82 0 -152 -4
-155 -9 -4 -5 -24 -9 -46 -9 -21 0 -39 -4 -39 -8 0 -5 14 -8 30 -7 17 1 27 -1
24 -4 -8 -9 -58 -9 -64 0 -7 9 -25 12 -80 10 -29 -1 -40 -4 -31 -10 9 -6 10
-10 2 -15 -10 -7 -39 -4 -96 10 -16 4 -17 3 -5 -5 11 -8 -32 -11 -150 -12 -91
0 -176 -2 -190 -3 -13 -2 -43 5 -65 15 -47 22 -51 21 95 20 63 0 122 4 130 9
12 7 8 10 -15 10 -34 0 -63 15 -52 27 5 4 11 3 15 -2 4 -6 25 -10 47 -10 22
-1 52 -4 68 -8 20 -6 27 -4 27 7 0 8 -7 17 -16 20 -26 10 -29 7 -8 -10 18 -15
18 -15 -2 -5 -12 6 -23 9 -26 8 -2 -1 5 6 17 17 20 18 19 18 -51 11 -42 -4
-74 -3 -78 3 -3 5 -18 8 -33 6 -16 -2 -20 -1 -10 2 9 3 14 10 11 15 -4 7 7 8
29 4 20 -4 43 -2 54 4 10 6 12 11 6 11 -7 0 -13 4 -13 9 0 6 15 5 36 -1 20 -5
38 -7 42 -4 3 3 -3 6 -14 7 -15 1 -13 3 6 9 19 6 13 8 -27 8 -28 0 -60 3 -71
6 -11 4 -23 2 -27 -4 -3 -5 -1 -11 4 -11 6 -1 16 -2 21 -3 18 -2 16 -19 -3
-22 -9 -1 -15 1 -12 6 8 13 -52 32 -77 25 l-23 -8 23 19 23 19 -50 -1 c-27 0
-56 -6 -64 -13 -12 -9 -18 -9 -30 4 -9 8 -18 12 -20 8 -6 -10 -59 -9 -75 1 -8
4 -12 0 -12 -11 0 -15 -2 -16 -10 -3 -11 17 -32 20 -42 5 -5 -6 -8 -6 -8 0 0
12 -229 13 -249 1 -9 -6 -12 -5 -8 1 3 5 0 10 -8 10 -8 0 -11 -5 -8 -10 4 -6
1 -7 -8 -1 -20 12 -141 12 -158 0 -12 -9 -13 -8 -6 4 7 12 6 13 -6 4 -9 -8
-42 -10 -94 -7 -111 7 -775 9 -775 3z m925 -20 c3 -6 -1 -7 -9 -4 -18 7 -21
14 -7 14 6 0 13 -4 16 -10z m82 4 c-3 -3 -12 -4 -19 -1 -8 3 -5 6 6 6 11 1 17
-2 13 -5z m2163 2 c0 -2 -8 -10 -17 -17 -16 -13 -17 -12 -4 4 13 16 21 21 21
13z m-1955 -18 c-3 -8 -25 -13 -53 -14 l-47 -1 50 12 c28 7 51 14 52 14 1 1 0
-5 -2 -11z m286 -12 c-6 -7 -32 -12 -58 -13 -39 0 -41 1 -10 4 20 2 37 7 37
11 0 4 9 8 21 9 15 1 18 -1 10 -11z m-111 -8 c0 -4 -12 -8 -26 -8 -14 0 -23 4
-20 8 2 4 14 8 25 8 12 0 21 -4 21 -8z m236 3 c3 5 11 9 17 8 9 0 8 -2 -1 -6
-6 -2 -9 -9 -6 -15 4 -7 -4 -8 -24 -3 -18 3 -33 2 -37 -4 -3 -6 -1 -11 5 -11
6 0 8 -5 4 -11 -5 -8 -8 -8 -14 0 -4 7 -20 16 -36 20 l-29 9 25 9 c13 6 39 7
57 3 18 -5 36 -4 39 1z m-483 -18 c-7 -2 -19 -2 -25 0 -7 3 -2 5 12 5 14 0 19
-2 13 -5z m1970 0 c-7 -2 -21 -2 -30 0 -10 3 -4 5 12 5 17 0 24 -2 18 -5z
m-1768 -24 c6 -6 -3 -7 -22 -3 -18 3 -33 2 -37 -5 -4 -6 -15 -11 -24 -10 -14
0 -13 2 3 9 16 7 12 9 -20 10 -32 2 -35 3 -16 9 30 8 103 2 116 -10z m188 7
c3 3 8 1 12 -5 4 -7 -5 -11 -23 -11 -17 0 -32 6 -35 15 -5 11 -1 12 17 5 13
-5 26 -6 29 -4z m1534 0 c4 -3 -15 -4 -42 -1 -26 2 -51 7 -54 11 -3 3 16 4 42
1 27 -3 51 -8 54 -11z m-193 -4 c2 -4 -6 -9 -20 -10 -13 -1 -24 3 -24 8 0 12
37 14 44 2z m-1757 -8 c-3 -3 -12 -4 -19 -1 -8 3 -5 6 6 6 11 1 17 -2 13 -5z
m320 0 c-3 -3 -12 -4 -19 -1 -8 3 -5 6 6 6 11 1 17 -2 13 -5z m40 0 c-3 -3
-12 -4 -19 -1 -8 3 -5 6 6 6 11 1 17 -2 13 -5z m203 -23 c0 -21 -6 -22 -165
-36 -40 -3 -53 -2 -40 4 17 8 14 10 -15 10 -26 1 -31 -2 -20 -9 8 -5 11 -10 5
-11 -5 -1 4 -5 20 -9 l30 -8 -29 -1 c-17 -1 -35 7 -46 19 -15 18 -22 19 -46 9
-45 -18 -154 -25 -249 -15 -23 2 -43 -1 -47 -8 -6 -8 -8 -7 -8 2 0 7 -13 12
-30 12 -16 0 -30 5 -30 10 0 9 61 6 97 -5 7 -2 15 0 18 5 4 6 16 10 28 9 21 0
21 -1 2 -9 -15 -6 -8 -9 28 -9 26 -1 47 3 47 7 0 4 19 8 43 7 25 0 41 4 40 11
-2 12 26 12 45 0 7 -4 12 -2 12 4 0 8 18 9 58 5 73 -9 194 -15 165 -8 -43 9
-23 20 27 15 32 -3 50 0 50 7 0 6 2 11 5 11 3 0 5 -9 5 -19z m1202 -5 c9 0 14
-4 12 -8 -3 -4 14 -9 38 -9 56 -2 162 -1 168 1 15 6 136 -3 144 -10 5 -5 16
-6 25 -3 12 5 13 3 5 -6 -9 -10 -17 -10 -32 -2 -14 7 -23 8 -27 1 -4 -6 -10
-8 -15 -5 -10 6 -198 8 -225 2 -11 -2 -23 0 -26 5 -3 4 -31 9 -62 11 -31 1
-57 5 -57 8 0 3 -12 4 -26 1 -19 -3 -25 -1 -20 7 4 6 11 9 15 7 4 -3 13 -1 21
5 8 5 22 6 30 2 8 -3 23 -6 32 -7z m-2000 -13 c21 -3 35 -10 32 -15 -4 -6 3
-7 17 -3 18 6 21 4 13 -5 -12 -12 -84 -4 -84 10 0 4 -13 6 -30 4 -22 -3 -30 1
-30 12 0 12 6 15 23 10 12 -4 39 -10 59 -13z m-95 -9 c-3 -3 -12 -4 -19 -1 -8
3 -5 6 6 6 11 1 17 -2 13 -5z m1511 -11 c-10 -2 -26 -2 -35 0 -10 3 -2 5 17 5
19 0 27 -2 18 -5z m182 1 c0 -8 -19 -13 -24 -6 -3 5 1 9 9 9 8 0 15 -2 15 -3z
m-1730 -17 c-14 -8 -31 -11 -39 -9 -11 4 -10 7 5 13 10 4 28 8 39 8 17 1 17
-1 -5 -12z m1860 5 c0 -5 -7 -9 -15 -9 -8 0 -12 4 -9 9 3 4 9 8 15 8 5 0 9 -4
9 -8z m135 -1 c-9 -8 -36 -10 -30 -2 2 4 11 8 20 8 8 0 13 -3 10 -6z m105 0
c0 -3 -13 -7 -30 -7 -16 -1 -30 1 -30 5 0 3 14 7 30 7 17 1 30 -1 30 -5z m195
-1 c4 -6 -7 -10 -27 -9 -31 1 -32 1 -8 9 14 4 26 8 27 9 1 1 5 -3 8 -9z
m-1630 -10 c-4 -6 13 -10 42 -11 26 -1 59 -5 73 -9 33 -10 -148 -4 -186 7 -27
7 -25 8 21 14 28 3 51 7 53 7 2 1 0 -2 -3 -8z m-542 -7 c-13 -2 -33 -2 -45 0
-13 2 -3 4 22 4 25 0 35 -2 23 -4z m1377 -3 c0 -5 -2 -10 -4 -10 -3 0 -8 5
-11 10 -3 6 -1 10 4 10 6 0 11 -4 11 -10z m54 2 c2 -4 -5 -9 -17 -9 -17 -2
-19 0 -7 7 18 12 18 12 24 2z m610 -4 c-3 -4 -9 -8 -15 -8 -5 0 -9 4 -9 8 0 5
7 9 15 9 8 0 12 -4 9 -9z m-1960 -10 c-3 -4 -9 -8 -15 -8 -5 0 -9 4 -9 8 0 5
7 9 15 9 8 0 12 -4 9 -9z m1774 5 c-15 -2 -42 -2 -60 0 -18 2 -6 4 27 4 33 0
48 -2 33 -4z m-615 -15 c8 7 18 7 27 2 9 -6 20 -4 29 3 12 9 13 9 7 0 -5 -10
2 -13 26 -13 26 0 30 3 18 11 -12 9 -12 10 3 5 10 -3 26 -6 35 -7 14 0 13 -2
-3 -9 -11 -5 -53 -9 -92 -9 -40 -1 -73 -5 -73 -9 0 -8 -22 -8 -90 -3 -23 2
-23 3 -5 10 11 5 26 6 34 3 10 -4 12 -1 6 8 -6 10 -4 12 8 7 9 -3 19 -2 23 4
4 6 11 6 20 -2 10 -8 18 -8 27 -1z m-949 -11 c-3 -10 18 -12 92 -12 58 0 99
-4 105 -11 6 -8 -8 -10 -51 -8 -47 2 -62 -1 -69 -14 -7 -13 -29 -18 -90 -22
-81 -5 -134 1 -115 12 5 4 15 3 22 -1 16 -9 162 5 174 17 7 7 -26 10 -93 8
-57 -1 -120 1 -139 5 -28 5 -22 7 30 8 45 1 60 4 50 11 -12 7 -10 9 7 7 12 0
19 -6 15 -12 -3 -5 1 -5 9 1 8 7 23 14 34 17 11 2 21 5 22 6 1 0 0 -5 -3 -12z
m622 1 c4 -7 9 -5 15 3 7 11 9 10 9 -3 0 -15 -10 -18 -57 -19 -32 -1 -69 -1
-83 -1 -22 1 -23 0 -7 -9 10 -6 26 -8 35 -4 11 4 14 3 7 -4 -5 -5 -21 -11 -35
-14 -23 -4 41 -9 137 -9 76 -1 40 -18 -72 -34 -22 -3 -44 -10 -49 -14 -5 -5 1
-6 13 -3 11 3 28 0 37 -8 12 -10 15 -10 12 1 -2 7 6 14 17 15 11 2 37 6 58 9
24 4 36 2 32 -4 -3 -5 0 -8 7 -6 7 3 63 7 123 10 61 3 151 10 200 16 119 13
225 17 225 7 0 -9 52 -3 69 7 5 4 13 2 16 -4 4 -6 3 -10 -2 -9 -26 5 -33 -5
-8 -11 l30 -8 -28 -1 c-16 0 -26 -5 -23 -10 6 -9 -5 -8 -101 7 -29 5 -50 5
-47 1 2 -4 -62 -7 -143 -7 -82 0 -200 -5 -263 -10 l-115 -10 96 0 c53 1 101
-2 105 -4 5 -3 29 -3 54 1 31 4 48 3 55 -6 6 -8 49 -15 113 -19 56 -4 100 -9
97 -12 -2 -3 -42 -6 -87 -8 -85 -3 -148 -10 -156 -19 -3 -2 -13 0 -23 6 -14 7
-19 6 -19 -3 0 -9 -3 -9 -10 2 -6 10 -10 11 -10 3 0 -16 -21 -12 -38 7 -12 13
-13 13 -9 -1 3 -9 -1 -16 -8 -16 -7 0 -11 6 -9 12 4 8 -16 12 -66 12 -38 0
-70 -3 -70 -7 0 -9 -204 -14 -245 -6 -11 3 -38 5 -60 6 -33 1 -36 3 -20 11 15
7 11 8 -17 5 -21 -2 -38 0 -38 5 0 11 -57 12 -64 1 -3 -5 9 -7 27 -4 22 2 28
0 19 -6 -15 -10 11 -15 198 -37 19 -2 48 -4 65 -4 23 -1 27 -3 16 -13 -15 -16
-643 -19 -633 -4 3 5 -2 6 -12 3 -9 -4 -15 -3 -12 2 6 9 -40 21 -80 21 -14 0
-24 6 -24 14 0 12 7 13 33 5 53 -15 123 -22 112 -11 -5 6 -19 12 -30 15 -11 2
45 3 125 1 131 -3 137 -2 65 6 -44 6 -98 10 -120 11 -31 0 -43 6 -51 23 -8 17
-7 23 2 23 7 0 13 -3 12 -6 -2 -22 6 -28 37 -27 44 1 46 13 3 19 -28 3 -26 4
12 6 35 2 41 4 25 11 -26 11 -25 11 145 13 108 2 144 5 143 14 -2 9 22 11 95
8 53 -2 91 -1 83 2 -8 3 -9 8 -3 12 6 3 -23 5 -64 4 -45 -1 -72 2 -69 8 4 5
40 9 82 9 42 0 74 2 72 4 -4 4 -81 15 -113 15 -11 1 -16 4 -12 8 4 4 21 6 39
5 18 -1 46 2 62 7 43 12 163 12 171 -1z m787 -5 c-3 -8 -21 -12 -42 -12 -28 1
-30 3 -11 7 23 4 24 5 5 12 -15 6 -11 8 16 7 25 -1 35 -6 32 -14z m87 2 c0 -2
-17 -5 -39 -7 -24 -2 -37 1 -34 7 3 9 73 9 73 0z m-170 -5 c0 -5 -2 -10 -4
-10 -3 0 -8 5 -11 10 -3 6 -1 10 4 10 6 0 11 -4 11 -10z m223 3 c-7 -2 -21 -2
-30 0 -10 3 -4 5 12 5 17 0 24 -2 18 -5z m331 -13 c20 -8 20 -9 -4 -9 -109 -3
-190 5 -190 19 0 10 166 1 194 -10z m-616 -15 c9 -9 -203 -4 -274 5 -40 6 -7
7 105 5 90 -2 166 -7 169 -10z m219 9 c-3 -3 -12 -4 -19 -1 -8 3 -5 6 6 6 11
1 17 -2 13 -5z m513 2 c0 -9 -30 -14 -35 -6 -4 6 3 10 14 10 12 0 21 -2 21 -4z
m-340 -12 c0 -8 -19 -13 -24 -6 -3 5 1 9 9 9 8 0 15 -2 15 -3z m165 -6 c109
-2 82 -15 -32 -16 -51 0 -83 4 -83 10 0 6 -7 8 -15 5 -8 -4 -17 -2 -20 3 -3 5
9 6 27 4 18 -3 73 -6 123 -6z m-2002 -5 c-7 -2 -21 -2 -30 0 -10 3 -4 5 12 5
17 0 24 -2 18 -5z m922 -3 c3 -5 1 -10 -4 -10 -6 0 -11 5 -11 10 0 6 2 10 4
10 3 0 8 -4 11 -10z m1290 0 c-3 -5 -14 -10 -23 -9 -14 0 -13 2 3 9 27 11 27
11 20 0z m48 3 c-7 -2 -19 -2 -25 0 -7 3 -2 5 12 5 14 0 19 -2 13 -5z m-2786
-9 c-3 -3 -12 -4 -19 -1 -8 3 -5 6 6 6 11 1 17 -2 13 -5z m1490 0 c-3 -3 -12
-4 -19 -1 -8 3 -5 6 6 6 11 1 17 -2 13 -5z m-1083 -13 c6 -9 -62 -6 -72 4 -3
3 11 5 31 5 20 0 38 -4 41 -9z m151 0 c3 -6 -15 -8 -46 -6 -69 6 -76 15 -11
15 28 0 53 -4 57 -9z m348 2 c-7 -2 -19 -2 -25 0 -7 3 -2 5 12 5 14 0 19 -2
13 -5z m67 -14 c0 -5 -12 -8 -27 -8 -18 1 -21 3 -10 6 9 2 15 9 12 14 -3 5 1
6 9 3 9 -3 16 -10 16 -15z m712 10 c-10 -11 -269 -22 -275 -12 -3 4 7 8 21 8
15 -1 56 1 92 5 94 7 171 7 162 -1z m418 -13 c0 -2 -9 -6 -20 -9 -11 -3 -18
-1 -14 4 5 9 34 13 34 5z m292 -6 c82 0 47 -12 -44 -15 -46 -2 -73 -1 -60 2
12 2 22 9 22 15 0 5 7 7 16 4 9 -3 39 -6 66 -6z m-132 -12 c0 -5 -18 -8 -39
-8 -22 0 -42 3 -44 8 -3 4 15 7 39 7 24 0 44 -3 44 -7z m219 3 c9 -6 10 -11 2
-15 -6 -4 -11 -2 -11 4 0 6 -4 8 -10 5 -5 -3 -10 -1 -10 4 0 13 10 14 29 2z
m-2149 -17 c0 -2 -9 -4 -21 -4 -11 0 -18 4 -14 10 5 8 35 3 35 -6z m218 1 c6
-3 12 0 12 6 0 6 5 7 11 3 8 -4 7 -9 -2 -15 -14 -8 -12 -10 13 -13 6 0 12 -7
14 -14 1 -7 0 -9 -2 -4 -3 5 -22 5 -47 0 -70 -15 -97 -14 -97 2 0 6 3 9 8 9 4
-1 16 -1 27 0 19 2 19 3 -2 11 -13 5 -34 11 -48 13 -13 1 -28 6 -32 10 -7 7
119 0 145 -8z m-473 -6 c17 0 37 -4 45 -9 35 -22 -102 -12 -140 11 -9 5 0 6
25 3 22 -3 54 -6 70 -5z m1829 -1 c-5 -9 -2 -9 9 1 10 8 17 9 17 3 0 -6 8 -11
18 -11 25 1 71 -7 77 -12 2 -3 -21 -4 -53 -3 -31 2 -85 3 -119 3 -35 1 -63 5
-63 11 0 5 18 7 40 5 22 -2 40 0 40 5 0 6 9 10 21 10 13 0 18 -4 13 -12z m370
-32 c16 -16 17 -18 3 -13 -10 4 -17 1 -18 -6 0 -9 -2 -9 -6 1 -7 18 -40 15
-55 -6 -13 -18 -58 -20 -168 -8 -25 3 -60 5 -79 5 -49 1 -35 8 27 14 36 4 52
2 52 -6 0 -7 5 -5 10 3 7 12 10 12 10 1 0 -9 6 -11 18 -6 9 4 39 9 67 12 27 2
52 8 55 12 5 8 33 17 55 17 6 0 19 -9 29 -20z m-2015 -12 c45 -9 38 -20 -9
-16 -22 2 -40 8 -40 13 0 11 7 11 49 3z m145 -16 c-5 -8 -64 -2 -72 7 -2 2 14
3 36 2 22 -1 38 -5 36 -9z m1833 6 c-3 -3 -12 -4 -19 -1 -8 3 -5 6 6 6 11 1
17 -2 13 -5z m-777 -30 c0 -2 -26 -3 -57 -3 -49 1 -53 3 -23 8 33 6 80 3 80
-5z m329 -4 c18 -5 53 -10 76 -11 24 -2 42 -6 40 -9 -2 -3 -18 -5 -35 -4 -24
2 -29 -1 -20 -11 8 -10 7 -14 -2 -17 -19 -7 -49 3 -42 13 3 5 0 9 -5 9 -6 0
-11 -5 -11 -11 0 -8 -6 -7 -17 2 -11 10 -14 10 -9 2 5 -9 0 -13 -16 -13 -18 0
-20 2 -8 10 17 11 10 13 -14 4 -9 -3 -13 -11 -9 -18 4 -6 -1 -5 -10 3 -9 7
-17 9 -17 3 0 -15 -80 -2 -115 20 l-30 18 45 1 c25 1 71 1 103 0 35 -2 57 2
57 8 0 13 -2 13 39 1z m-1325 -20 c-5 -5 -37 -10 -71 -12 -34 -1 -60 -1 -57 1
2 2 -3 9 -11 15 -12 8 5 10 66 8 45 -2 77 -7 73 -12z m1070 1 c-8 -8 -34 -10
-38 -2 -3 4 6 7 19 7 14 0 22 -2 19 -5z m-182 -20 c-3 -9 -1 -12 6 -7 18 11
53 16 47 7 -2 -5 28 -12 68 -16 l72 -8 -54 -12 c-66 -16 -203 -19 -181 -5 13
8 12 10 -2 10 -10 0 -18 5 -18 10 0 6 -29 10 -67 10 -87 0 -76 9 23 18 110 10
113 10 106 -7z m613 -12 c-27 -4 -60 -9 -72 -12 -16 -4 -23 -1 -23 9 0 8 8 13
21 11 12 -2 37 -1 57 3 21 3 44 4 52 1 8 -3 -7 -9 -35 -12z m-984 -13 c36 -5
210 -14 294 -16 15 0 17 -2 7 -9 -18 -11 18 -21 80 -21 26 0 49 -3 51 -7 3 -5
-20 -6 -51 -5 -63 4 -68 -5 -8 -12 44 -6 60 -16 25 -16 -19 0 -21 -2 -9 -10
13 -8 13 -10 -2 -10 -9 0 -27 4 -40 9 -13 5 -46 12 -73 15 -58 8 -71 16 -29
17 20 1 23 3 9 6 -11 2 -31 8 -45 13 -28 11 -87 18 -206 26 -45 3 -94 9 -110
14 -28 9 -28 10 9 7 20 -2 37 1 37 6 0 4 4 6 8 3 5 -3 28 -7 53 -10z m-311
-10 c-12 -12 -111 -16 -104 -5 2 4 -4 9 -13 12 -10 2 15 4 55 4 53 0 70 -3 62
-11z m148 -12 c27 4 30 3 12 -2 l-25 -8 28 -6 c15 -3 27 -1 27 5 0 9 37 7 173
-9 41 -5 54 -10 45 -16 -9 -7 -6 -8 10 -5 12 3 20 1 17 -3 -3 -5 5 -11 17 -13
23 -5 -123 0 -237 8 -41 3 -52 1 -35 -4 14 -5 38 -9 53 -10 16 -1 26 -5 22
-11 -4 -6 -10 -8 -14 -5 -5 2 -73 7 -152 11 -79 3 -151 11 -159 16 -10 6 4 7
40 4 43 -4 50 -3 31 5 -29 12 -55 17 -96 19 l-30 2 27 8 c15 4 54 3 92 -5 47
-8 66 -9 67 -1 0 6 3 6 6 -1 2 -7 14 -12 26 -12 19 1 20 2 3 6 -14 4 -16 7 -6
13 8 5 2 10 -19 15 -17 3 -31 11 -31 15 0 5 16 2 36 -6 20 -9 50 -13 72 -10z
m1126 4 c3 5 59 10 128 11 133 2 158 -9 31 -14 -94 -4 -91 -3 -74 -14 15 -9 5
-12 -84 -25 -16 -2 -49 -7 -72 -11 -30 -5 -43 -4 -43 4 0 7 6 11 13 10 25 -3
50 1 43 8 -8 8 -26 11 -84 14 -24 2 -46 7 -49 12 -3 5 32 7 81 5 53 -2 86 1
86 7 0 6 4 4 9 -4 5 -8 11 -9 15 -3z m-1839 -28 c3 -6 -1 -7 -9 -4 -18 7 -21
14 -7 14 6 0 13 -4 16 -10z m312 -2 c-6 -4 -15 -4 -20 -1 -5 3 -7 0 -5 -8 3
-8 16 -13 32 -12 15 1 24 -2 21 -6 -6 -10 66 -28 143 -36 39 -3 51 -2 46 7 -5
8 -2 9 10 5 10 -4 30 -8 44 -8 22 -1 19 -3 -13 -11 -83 -19 -189 -14 -204 11
-4 5 -27 11 -51 13 -25 2 -48 8 -52 13 -5 6 -8 6 -8 -1 0 -6 -13 -9 -30 -6
-16 2 -30 10 -30 17 0 16 -19 21 -90 24 -30 2 -57 5 -60 7 -2 3 59 4 137 2 78
-2 136 -6 130 -10z m746 -15 c-7 -2 -21 -2 -30 0 -10 3 -4 5 12 5 17 0 24 -2
18 -5z m548 -6 c-7 -7 -14 -8 -21 -1 -6 6 -2 10 12 11 16 2 18 -1 9 -10z
m-201 -9 c0 -4 -9 -8 -20 -8 -11 0 -20 4 -20 8 0 4 9 8 20 8 11 0 20 -4 20 -8z
m550 8 c0 -5 -101 -28 -135 -30 -41 -4 -37 8 6 19 43 12 129 19 129 11z m-32
-33 c-10 -2 -26 -2 -35 0 -10 3 -2 5 17 5 19 0 27 -2 18 -5z m-1023 -11 c-3
-3 0 -11 7 -19 9 -12 0 -13 -58 -7 -38 4 -70 8 -72 9 -4 3 93 21 116 21 6 1
10 -2 7 -4z m965 -12 c0 -17 -6 -20 -37 -19 l-38 2 35 7 c19 4 31 8 27 9 -5 0
-5 6 -2 11 10 16 15 12 15 -10z m-1163 4 c-3 -3 -12 -4 -19 -1 -8 3 -5 6 6 6
11 1 17 -2 13 -5z m1243 -4 c0 -5 -7 -10 -15 -10 -8 0 -15 5 -15 10 0 6 7 10
15 10 8 0 15 -4 15 -10z m-172 -7 c-10 -2 -26 -2 -35 0 -10 3 -2 5 17 5 19 0
27 -2 18 -5z m-553 -13 c3 -5 1 -10 -4 -10 -6 0 -11 5 -11 10 0 6 2 10 4 10 3
0 8 -4 11 -10z m100 0 c5 -4 21 -10 35 -13 14 -3 1 -4 -27 -3 -29 0 -55 6 -57
11 -5 13 34 17 49 5z m850 -13 c11 -2 29 -8 40 -15 18 -10 15 -11 -20 -11 -52
1 -87 11 -93 27 -2 8 5 10 25 7 15 -3 37 -7 48 -8z m-1901 -13 c32 -12 15 -25
-29 -23 -29 2 -45 7 -45 16 0 14 46 18 74 7z m1591 -4 c8 -12 -52 -12 -80 0
-15 6 -8 9 27 9 26 1 50 -3 53 -9z m-731 -12 c-3 -4 -2 -8 3 -9 4 0 17 -2 28
-5 11 -2 35 -6 54 -9 63 -9 47 -18 -19 -11 -40 5 -68 13 -73 22 -5 8 -12 12
-18 9 -5 -3 -17 -1 -26 4 -15 9 -11 11 19 9 20 -1 34 -6 32 -10z m-540 -14
c36 -6 50 -24 20 -24 -8 0 -12 -4 -9 -10 3 -5 -6 -12 -20 -16 -13 -3 -23 -10
-20 -14 7 -12 -34 -16 -85 -9 l-45 6 40 3 c26 2 32 4 18 7 -43 8 -23 19 27 16
54 -4 64 2 28 17 -23 9 -23 9 2 10 l25 1 -25 15 c-14 8 -17 13 -8 10 9 -3 33
-8 52 -12z m283 10 c-3 -3 -12 -4 -19 -1 -8 3 -5 6 6 6 11 1 17 -2 13 -5z m96
-4 c20 0 37 -4 37 -8 0 -10 -109 3 -118 14 -4 4 4 4 18 1 14 -4 42 -7 63 -7z
m-290 -27 c-7 -2 -21 -2 -30 0 -10 3 -4 5 12 5 17 0 24 -2 18 -5z m-83 -114
c3 -4 21 -9 40 -11 19 -3 6 -5 -30 -5 -40 0 -57 3 -45 7 17 6 14 9 -18 15 -20
4 -39 11 -42 15 -6 9 88 -11 95 -21z m623 4 c-7 -2 -19 -2 -25 0 -7 3 -2 5 12
5 14 0 19 -2 13 -5z m-716 -19 c-10 -10 -77 -12 -77 -2 0 4 19 8 42 8 23 0 38
-3 35 -6z m198 -12 c-3 -3 -11 0 -18 7 -9 10 -8 11 6 5 10 -3 15 -9 12 -12z
m495 9 c0 -5 -7 -11 -14 -14 -10 -4 -13 -1 -9 9 6 15 23 19 23 5z m-630 -41
c0 -5 -6 -10 -14 -10 -8 0 -18 5 -21 10 -3 6 3 10 14 10 12 0 21 -4 21 -10z
m272 -2 c-20 -5 -39 -5 -50 1 -12 7 -3 9 33 9 48 -1 48 -1 17 -10z m-312 -18
c0 -6 10 -6 27 1 33 12 119 9 139 -6 13 -9 12 -11 -8 -12 -12 0 -75 -3 -138
-6 -63 -3 -101 -3 -85 0 17 3 34 11 38 19 9 16 27 19 27 4z m417 4 c-3 -3 -12
-4 -19 -1 -8 3 -5 6 6 6 11 1 17 -2 13 -5z m-357 -86 c0 -10 -19 -9 -45 2 -16
7 -14 8 12 7 18 -1 33 -5 33 -9z m60 8 c0 -2 -11 -6 -25 -8 -14 -3 -25 -1 -25
3 0 5 11 9 25 9 14 0 25 -2 25 -4z m325 -16 l20 -9 -20 0 c-11 0 -27 4 -35 9
-13 9 -13 10 0 9 8 0 24 -4 35 -9z m204 -36 c2 -2 -16 -4 -42 -4 -25 0 -48 4
-51 9 -6 8 84 4 93 -5z"/>
<path d="M2210 1750 c0 -5 5 -10 11 -10 5 0 7 5 4 10 -3 6 -8 10 -11 10 -2 0
-4 -4 -4 -10z"/>
<path d="M2336 1509 c4 -8 30 -6 38 2 3 3 -5 5 -19 5 -13 0 -22 -3 -19 -7z"/>
<path d="M3100 1500 c0 -5 5 -10 11 -10 5 0 7 5 4 10 -3 6 -8 10 -11 10 -2 0
-4 -4 -4 -10z"/>
<path d="M2138 1493 c12 -2 30 -2 40 0 9 3 -1 5 -23 4 -22 0 -30 -2 -17 -4z"/>
<path d="M2215 1490 c-3 -6 1 -7 9 -4 18 7 21 14 7 14 -6 0 -13 -4 -16 -10z"/>
<path d="M2428 1463 c7 -3 16 -2 19 1 4 3 -2 6 -13 5 -11 0 -14 -3 -6 -6z"/>
<path d="M2175 1450 c-25 -7 -21 -8 23 -7 28 1 52 -1 52 -5 0 -7 161 0 169 7
2 3 -19 6 -47 6 -29 1 -58 2 -64 3 -7 1 -16 -3 -20 -9 -5 -7 -8 -7 -8 1 0 12
-64 15 -105 4z"/>
<path d="M2738 1443 c7 -3 16 -2 19 1 4 3 -2 6 -13 5 -11 0 -14 -3 -6 -6z"/>
<path d="M1970 1436 c0 -2 9 -6 20 -9 11 -3 18 -1 14 4 -5 9 -34 13 -34 5z"/>
<path d="M1898 1393 c7 -3 16 -2 19 1 4 3 -2 6 -13 5 -11 0 -14 -3 -6 -6z"/>
<path d="M2003 1273 c9 -2 23 -2 30 0 6 3 -1 5 -18 5 -16 0 -22 -2 -12 -5z"/>
<path d="M1478 1253 c7 -3 16 -2 19 1 4 3 -2 6 -13 5 -11 0 -14 -3 -6 -6z"/>
<path d="M2416 1808 c3 -5 10 -6 15 -3 13 9 11 12 -6 12 -8 0 -12 -4 -9 -9z"/>
<path d="M3507 1809 c7 -7 15 -10 18 -7 3 3 -2 9 -12 12 -14 6 -15 5 -6 -5z"/>
<path d="M2558 1803 c7 -3 16 -2 19 1 4 3 -2 6 -13 5 -11 0 -14 -3 -6 -6z"/>
<path d="M2950 1790 c-22 -6 -20 -7 15 -13 58 -10 143 -9 150 2 3 6 -7 8 -22
7 -16 -2 -34 1 -42 8 -10 7 -13 8 -8 0 4 -7 -5 -11 -25 -12 -23 -1 -28 2 -18
8 12 7 10 9 -5 8 -11 -1 -31 -5 -45 -8z"/>
<path d="M2526 1781 c-4 -5 3 -7 14 -4 23 6 26 13 6 13 -8 0 -17 -4 -20 -9z"/>
<path d="M2579 1779 c-10 -6 -7 -9 14 -9 29 0 35 5 14 13 -8 3 -20 1 -28 -4z"/>
<path d="M2710 1786 c0 -2 7 -7 16 -10 8 -3 12 -2 9 4 -6 10 -25 14 -25 6z"/>
<path d="M2757 1784 c-3 -3 -3 -13 0 -22 5 -13 0 -14 -30 -9 -22 3 -37 2 -37
-4 0 -5 20 -9 44 -8 25 2 43 6 40 10 -2 4 2 10 8 12 8 3 6 6 -5 6 -10 1 -15 6
-12 11 7 11 2 14 -8 4z"/>
<path d="M3228 1783 c12 -2 30 -2 40 0 9 3 -1 5 -23 4 -22 0 -30 -2 -17 -4z"/>
<path d="M3323 1783 c9 -2 23 -2 30 0 6 3 -1 5 -18 5 -16 0 -22 -2 -12 -5z"/>
<path d="M3403 1783 c9 -2 25 -2 35 0 9 3 1 5 -18 5 -19 0 -27 -2 -17 -5z"/>
<path d="M3476 1779 c3 -5 24 -9 46 -9 51 0 47 5 -10 13 -24 3 -40 1 -36 -4z"/>
<path d="M2827 1759 c12 -12 122 -25 110 -13 -4 4 -20 9 -35 10 -15 1 -40 5
-56 8 -20 4 -26 2 -19 -5z"/>
<path d="M2428 1733 c6 -2 18 -2 25 0 6 3 1 5 -13 5 -14 0 -19 -2 -12 -5z"/>
<path d="M2510 1718 c-9 -20 -9 -21 2 -7 7 9 20 18 28 22 12 4 12 6 -2 6 -10
1 -22 -9 -28 -21z"/>
<path d="M2520 1685 c0 -8 4 -15 10 -15 5 0 7 7 4 15 -4 8 -8 15 -10 15 -2 0
-4 -7 -4 -15z"/>
<path d="M2590 1660 c-9 -6 -10 -10 -3 -10 6 0 15 5 18 10 8 12 4 12 -15 0z"/>
<path d="M2813 1663 c9 -2 25 -2 35 0 9 3 1 5 -18 5 -19 0 -27 -2 -17 -5z"/>
<path d="M1231 1236 c3 -3 20 -8 39 -11 25 -4 31 -3 20 5 -14 9 -68 15 -59 6z"/>
<path d="M1428 1043 c7 -3 16 -2 19 1 4 3 -2 6 -13 5 -11 0 -14 -3 -6 -6z"/>
</g>
</svg>
